<?xml version="1.0" standalone="no"?>
<!DOCTYPE svg PUBLIC "-//W3C//DTD SVG 20010904//EN"
 "http://www.w3.org/TR/2001/REC-SVG-20010904/DTD/svg10.dtd">
<svg version="1.0" xmlns="http://www.w3.org/2000/svg"
 width="256.000000pt" height="256.000000pt" viewBox="0 0 256.000000 256.000000"
 preserveAspectRatio="xMidYMid meet">
<metadata>
Created by potrace 1.11, written by Peter Selinger 2001-2013
</metadata>
<g transform="translate(0.000000,256.000000) scale(0.100000,-0.100000)"
fill="#000000" stroke="none">
<path d="M1136 2522 c-3 -6 -14 -10 -24 -10 -9 0 -30 -3 -47 -7 -16 -4 -49 -8
-72 -8 -24 -1 -37 -4 -30 -9 13 -8 11 -9 -30 -12 -10 -1 -24 -5 -30 -9 -7 -5
-13 -5 -13 -1 0 3 -7 1 -15 -6 -8 -7 -22 -10 -30 -6 -9 3 -14 2 -11 -3 3 -5
-1 -12 -10 -15 -10 -4 -13 -2 -8 6 4 7 -6 2 -23 -10 -17 -12 -33 -19 -37 -15
-3 3 -6 1 -6 -5 0 -7 -9 -12 -20 -12 -11 0 -20 -5 -20 -12 0 -6 -3 -8 -6 -5
-4 4 -20 -3 -35 -14 -16 -11 -29 -17 -29 -12 0 4 -4 4 -8 -2 -4 -5 -17 -18
-29 -29 -20 -16 -25 -17 -40 -5 -13 11 -15 11 -9 1 5 -9 0 -21 -13 -33 -12
-11 -21 -17 -21 -14 0 2 -13 -9 -29 -25 -15 -17 -31 -30 -35 -30 -3 0 -21 -16
-40 -35 -18 -19 -37 -31 -41 -27 -5 4 -5 2 -2 -4 4 -6 -7 -23 -22 -37 -16 -14
-49 -52 -73 -84 -23 -32 -47 -61 -53 -65 -7 -5 -7 -8 0 -8 6 0 1 -7 -9 -15
-11 -8 -16 -15 -11 -15 4 0 1 -8 -8 -18 -8 -9 -20 -28 -26 -42 -6 -14 -15 -32
-21 -40 -12 -18 -28 -62 -26 -72 0 -4 -8 -14 -19 -23 -11 -9 -13 -13 -5 -9 13
7 13 5 1 -9 -7 -9 -10 -17 -5 -17 5 0 0 -7 -10 -15 -14 -11 -16 -15 -5 -15 8
0 10 -3 4 -8 -10 -7 -17 -27 -18 -49 0 -7 -3 -13 -7 -13 -3 0 -7 -11 -8 -25
-1 -14 -3 -36 -4 -50 -1 -14 -5 -25 -9 -25 -4 0 -6 -8 -5 -17 2 -10 -2 -21 -8
-25 -8 -6 -7 -8 1 -8 14 0 6 -31 -11 -42 -8 -5 -7 -8 1 -8 7 0 10 -6 7 -14
-10 -25 -10 -216 0 -219 6 -2 5 -10 -1 -21 -7 -13 -6 -27 4 -48 11 -21 12 -32
4 -42 -8 -10 -7 -17 5 -27 10 -8 14 -24 12 -46 -2 -18 0 -34 6 -36 8 -3 11
-14 18 -64 1 -7 5 -13 9 -13 4 0 10 -15 13 -32 4 -18 24 -69 46 -112 22 -44
36 -84 33 -89 -3 -6 -1 -7 5 -3 7 4 12 1 12 -8 0 -9 4 -16 9 -16 5 0 13 -9 16
-20 3 -11 12 -26 18 -32 20 -22 52 -73 49 -81 -1 -4 2 -6 6 -5 13 5 74 -70 67
-82 -3 -5 0 -8 7 -5 7 3 30 -13 52 -35 21 -22 43 -40 48 -40 5 0 6 -4 3 -10
-3 -5 0 -10 7 -10 7 0 26 -11 41 -25 15 -14 27 -23 27 -20 0 3 12 -5 27 -19
15 -14 30 -23 35 -20 4 3 8 1 8 -4 0 -5 21 -20 48 -33 26 -13 49 -27 50 -31 2
-5 12 -8 23 -8 10 0 19 -5 19 -10 0 -6 3 -9 8 -8 7 3 65 -17 94 -33 10 -5 25
-9 33 -9 9 0 14 -4 11 -9 -3 -4 7 -8 22 -7 17 1 26 -4 24 -12 -2 -10 2 -10 20
-1 16 9 23 9 26 0 2 -6 8 -9 13 -5 5 3 9 1 9 -4 0 -5 14 -6 31 -4 19 3 29 1
26 -5 -7 -11 22 -11 40 0 6 4 14 3 17 -2 3 -5 24 -9 46 -9 22 0 44 -3 49 -6 5
-4 12 0 14 6 4 10 6 10 6 1 1 -9 8 -10 25 -3 13 5 27 6 30 3 11 -11 56 -9 56
2 0 5 5 3 10 -5 5 -8 10 -10 10 -4 0 6 15 12 33 12 65 0 154 17 172 32 10 8
15 8 20 0 5 -8 14 -6 28 7 11 10 17 12 12 4 -4 -8 3 -6 21 5 21 14 26 15 19 4
-7 -12 -5 -12 11 1 30 25 55 31 73 17 14 -11 14 -11 4 3 -11 13 -5 19 45 39
31 12 62 28 67 34 6 6 15 12 22 13 22 4 159 104 221 161 19 17 39 32 44 32 5
0 7 4 3 9 -3 5 4 12 15 16 11 4 18 11 15 16 -4 5 1 12 9 15 9 3 16 13 16 21 0
8 3 12 8 10 7 -5 25 10 33 28 2 6 7 9 12 7 4 -1 6 1 6 5 -4 22 2 33 13 27 8
-5 9 -2 5 9 -3 10 -2 17 3 17 5 0 12 9 15 20 4 11 10 18 15 15 5 -3 11 8 15
25 4 16 11 33 16 36 6 3 14 17 20 31 5 13 13 21 19 18 5 -3 7 0 4 8 -3 8 10
47 29 86 19 39 29 68 23 64 -6 -4 -6 -1 1 9 7 8 10 18 6 21 -3 4 -2 7 4 7 5 0
10 6 10 13 2 35 15 82 26 89 9 6 8 8 -2 8 -10 0 -11 3 -3 13 6 7 13 34 15 59
3 25 8 51 11 57 4 6 1 11 -6 11 -8 0 -9 3 -3 8 6 4 10 41 10 82 0 41 4 83 8
94 7 14 6 16 -4 11 -9 -6 -11 0 -6 23 4 18 3 32 -1 32 -4 0 -8 19 -9 43 -1 44
-9 86 -18 95 -2 3 1 12 8 20 9 13 9 14 0 8 -9 -5 -13 -1 -14 11 -1 32 -7 56
-16 62 -5 3 -9 15 -8 26 0 11 -3 22 -7 25 -4 3 -9 16 -11 28 -2 12 -6 25 -10
28 -4 4 -7 16 -7 26 0 11 -4 16 -10 13 -6 -4 -10 5 -10 19 0 14 -3 26 -8 26
-8 0 -38 61 -34 73 1 4 -2 7 -8 7 -14 0 -42 59 -34 72 4 6 3 8 -4 4 -6 -3 -23
12 -39 34 -15 23 -43 56 -60 75 -18 18 -33 38 -33 45 0 6 -4 8 -10 5 -9 -6
-14 8 -11 27 0 5 -2 7 -7 6 -11 -4 -53 28 -45 35 3 4 0 7 -8 7 -8 0 -21 9 -29
19 -7 11 -17 18 -22 15 -4 -3 -8 2 -8 10 0 9 -3 15 -7 15 -20 -3 -34 2 -28 11
3 6 -1 10 -9 10 -9 0 -16 5 -16 11 0 5 -5 7 -10 4 -6 -3 -13 1 -16 9 -3 9 -10
13 -15 10 -5 -3 -9 -1 -9 3 0 5 -18 17 -40 27 -23 10 -37 22 -34 28 4 6 3 8
-3 5 -5 -3 -21 0 -36 8 -14 7 -28 11 -31 7 -3 -3 -6 0 -6 7 0 7 -4 9 -10 6 -5
-3 -10 -1 -10 4 0 6 -9 11 -20 11 -11 0 -20 4 -20 8 0 4 -12 9 -26 10 -15 1
-33 7 -40 13 -7 6 -18 8 -24 4 -5 -3 -10 2 -10 12 0 14 -2 15 -9 5 -7 -11 -10
-11 -22 0 -8 7 -31 13 -51 12 -21 -1 -38 3 -38 7 0 5 -10 9 -22 9 -77 1 -138
6 -138 11 0 8 -83 5 -97 -4 -6 -4 -14 -3 -17 1 -7 11 -46 9 -65 -2 -8 -5 -16
-4 -21 4 -5 8 -10 9 -14 2z"/>
<path d="M389 2203 c-13 -16 -12 -17 4 -4 9 7 17 15 17 17 0 8 -8 3 -21 -13z"/>
<path d="M2225 2120 c-3 -6 1 -7 9 -4 18 7 21 14 7 14 -6 0 -13 -4 -16 -10z"/>
<path d="M75 809 c-4 -6 -5 -12 -2 -15 2 -3 7 2 10 11 7 17 1 20 -8 4z"/>
</g>
</svg>
